<?xml version="1.0" standalone="no"?>
<!DOCTYPE svg PUBLIC "-//W3C//DTD SVG 20010904//EN"
 "http://www.w3.org/TR/2001/REC-SVG-20010904/DTD/svg10.dtd">
<svg version="1.0" xmlns="http://www.w3.org/2000/svg"
 width="1024.000000pt" height="1024.000000pt" viewBox="0 0 1024.000000 1024.000000"
 preserveAspectRatio="xMidYMid meet">
<metadata>
Created by potrace 1.11, written by Peter Selinger 2001-2013
</metadata>
<g transform="translate(0.000000,1024.000000) scale(0.100000,-0.100000)"
fill="#000000" stroke="none">
<path d="M3894 8690 c-783 -53 -1500 -483 -1952 -1172 -267 -408 -401 -879
-402 -1419 l0 -87 -82 -33 c-356 -141 -662 -364 -918 -670 -159 -190 -257
-348 -354 -573 -122 -283 -176 -558 -176 -894 0 -480 116 -884 359 -1251 342
-517 839 -864 1421 -994 244 -54 87 -52 3455 -52 3329 0 3165 -2 3404 46 558
113 1101 540 1371 1079 148 295 211 564 211 905 0 320 -65 607 -202 890 -279
577 -749 960 -1350 1100 l-76 18 19 61 c94 304 100 637 18 929 -86 309 -284
594 -550 793 -285 213 -565 306 -920 305 -296 0 -544 -68 -793 -218 -32 -19
-60 -34 -61 -32 -2 2 -32 49 -68 104 -103 160 -193 270 -338 415 -280 280
-606 486 -970 616 -323 114 -671 159 -1046 134z m-402 -2130 c119 -30 217 -84
309 -172 280 -266 291 -697 25 -977 -150 -156 -328 -229 -536 -218 -204 10
-372 95 -505 255 -108 130 -157 267 -157 437 0 269 144 501 392 631 118 62
325 81 472 44z m2865 -735 c24 -10 220 -199 594 -574 l559 -558 0 -702 0 -701
-2392 2 -2393 3 -3 295 -2 295 472 471 c501 499 499 498 566 473 15 -5 192
-175 395 -377 l367 -367 863 862 c767 768 892 887 935 893 1 0 19 -7 39 -15z"/>
</g>
</svg>
